<svg xmlns="http://www.w3.org/2000/svg" version="1.1" width="256" height="256" viewBox="0 0 256 256" xml:space="preserve">

<defs>
</defs>
    <g style="stroke: none; stroke-width: 0; stroke-dasharray: none; stroke-linecap: butt; stroke-linejoin: miter; stroke-miterlimit: 10; fill: none; fill-rule: nonzero; opacity: 1;" transform="translate(1.4065934065934016 1.4065934065934016) scale(2.81 2.81)">
	<path d="M 89 20.938 c -0.553 0 -1 0.448 -1 1 v 46.125 c 0 2.422 -1.135 4.581 -2.898 5.983 L 62.328 50.71 c -0.37 -0.379 -0.973 -0.404 -1.372 -0.057 L 45.058 64.479 l -2.862 -2.942 c -0.385 -0.396 -1.019 -0.405 -1.414 -0.02 c -0.396 0.385 -0.405 1.019 -0.02 1.414 l 3.521 3.62 c 0.37 0.38 0.972 0.405 1.373 0.058 l 15.899 -13.826 l 21.783 22.32 c -0.918 0.391 -1.928 0.608 -2.987 0.608 H 24.7 c -0.552 0 -1 0.447 -1 1 s 0.448 1 1 1 h 55.651 c 5.32 0 9.648 -4.328 9.648 -9.647 V 21.938 C 90 21.386 89.553 20.938 89 20.938 z"
          style="stroke: none; stroke-width: 1; stroke-dasharray: none; stroke-linecap: butt; stroke-linejoin: miter; stroke-miterlimit: 10; fill: rgb(0,0,0); fill-rule: nonzero; opacity: 1;" transform=" matrix(1 0 0 1 0 0) " stroke-linecap="round"/>
        <path d="M 89.744 4.864 c -0.369 -0.411 -1.002 -0.444 -1.412 -0.077 l -8.363 7.502 H 9.648 C 4.328 12.29 0 16.618 0 21.938 v 46.125 c 0 4.528 3.141 8.328 7.356 9.361 l -7.024 6.3 c -0.411 0.368 -0.445 1.001 -0.077 1.412 c 0.198 0.22 0.471 0.332 0.745 0.332 c 0.238 0 0.476 -0.084 0.667 -0.256 l 88 -78.935 C 90.079 5.908 90.113 5.275 89.744 4.864 z M 9.648 14.29 h 68.091 L 34.215 53.33 L 23.428 42.239 c -0.374 -0.385 -0.985 -0.404 -1.385 -0.046 L 2 60.201 V 21.938 C 2 17.721 5.431 14.29 9.648 14.29 z M 2 68.063 v -5.172 l 20.665 -18.568 l 10.061 10.345 L 9.286 75.692 C 5.238 75.501 2 72.157 2 68.063 z"
              style="stroke: none; stroke-width: 1; stroke-dasharray: none; stroke-linecap: butt; stroke-linejoin: miter; stroke-miterlimit: 10; fill: rgb(0,0,0); fill-rule: nonzero; opacity: 1;" transform=" matrix(1 0 0 1 0 0) " stroke-linecap="round"/>
        <path d="M 32.607 35.608 c -4.044 0 -7.335 -3.291 -7.335 -7.335 s 3.291 -7.335 7.335 -7.335 s 7.335 3.291 7.335 7.335 S 36.652 35.608 32.607 35.608 z M 32.607 22.938 c -2.942 0 -5.335 2.393 -5.335 5.335 s 2.393 5.335 5.335 5.335 s 5.335 -2.393 5.335 -5.335 S 35.549 22.938 32.607 22.938 z"
              style="stroke: none; stroke-width: 1; stroke-dasharray: none; stroke-linecap: butt; stroke-linejoin: miter; stroke-miterlimit: 10; fill: rgb(0,0,0); fill-rule: nonzero; opacity: 1;" transform=" matrix(1 0 0 1 0 0) " stroke-linecap="round"/>
</g>
</svg>